<mxfile host="app.diagrams.net" modified="2023-05-16T14:02:28.334Z" agent="Mozilla/5.0 (Windows NT 10.0; Win64; x64) AppleWebKit/537.36 (KHTML, like Gecko) Chrome/113.0.0.0 Safari/537.36" etag="lNrzJGOVlWoIzKIAcKvU" version="21.3.2" type="device">
  <diagram name="Pagina-1" id="t11vu-KiNHWgRTmwVG-O">
    <mxGraphModel dx="1221" dy="663" grid="1" gridSize="10" guides="1" tooltips="1" connect="1" arrows="1" fold="1" page="1" pageScale="1" pageWidth="827" pageHeight="1169" math="0" shadow="0">
      <root>
        <mxCell id="0" />
        <mxCell id="1" parent="0" />
        <mxCell id="nR4w6nnt4aLYPL_v6mUS-1" value="Informatico" style="shape=umlActor;verticalLabelPosition=bottom;verticalAlign=top;html=1;outlineConnect=0;" parent="1" vertex="1">
          <mxGeometry x="40" y="270" width="30" height="60" as="geometry" />
        </mxCell>
        <mxCell id="nR4w6nnt4aLYPL_v6mUS-2" value="Visualizzazione locandine delle pellicole" style="ellipse;whiteSpace=wrap;html=1;" parent="1" vertex="1">
          <mxGeometry x="120" y="50" width="120" height="80" as="geometry" />
        </mxCell>
        <mxCell id="nR4w6nnt4aLYPL_v6mUS-6" value="Visualizzazione convenzioni" style="ellipse;whiteSpace=wrap;html=1;" parent="1" vertex="1">
          <mxGeometry x="190" y="250" width="120" height="80" as="geometry" />
        </mxCell>
        <mxCell id="nR4w6nnt4aLYPL_v6mUS-7" value="Generazione codice sconto bowling" style="ellipse;whiteSpace=wrap;html=1;" parent="1" vertex="1">
          <mxGeometry x="320" y="140" width="120" height="80" as="geometry" />
        </mxCell>
        <mxCell id="nR4w6nnt4aLYPL_v6mUS-8" value="Lista attività" style="ellipse;whiteSpace=wrap;html=1;" parent="1" vertex="1">
          <mxGeometry x="414" y="250" width="120" height="80" as="geometry" />
        </mxCell>
        <mxCell id="nR4w6nnt4aLYPL_v6mUS-9" value="Convenzione Hotel" style="ellipse;whiteSpace=wrap;html=1;" parent="1" vertex="1">
          <mxGeometry x="330" y="360" width="120" height="80" as="geometry" />
        </mxCell>
        <mxCell id="nR4w6nnt4aLYPL_v6mUS-10" value="Re-indirizzamento sito web dell&#39;Hotel" style="ellipse;whiteSpace=wrap;html=1;" parent="1" vertex="1">
          <mxGeometry x="580" y="360" width="120" height="80" as="geometry" />
        </mxCell>
        <mxCell id="nR4w6nnt4aLYPL_v6mUS-11" value="" style="endArrow=none;html=1;rounded=0;entryX=0;entryY=1;entryDx=0;entryDy=0;" parent="1" target="nR4w6nnt4aLYPL_v6mUS-2" edge="1">
          <mxGeometry width="50" height="50" relative="1" as="geometry">
            <mxPoint x="60" y="260" as="sourcePoint" />
            <mxPoint x="130" y="160" as="targetPoint" />
            <Array as="points">
              <mxPoint x="100" y="190" />
            </Array>
          </mxGeometry>
        </mxCell>
        <mxCell id="nR4w6nnt4aLYPL_v6mUS-12" value="" style="endArrow=none;html=1;rounded=0;entryX=0;entryY=0.5;entryDx=0;entryDy=0;" parent="1" target="nR4w6nnt4aLYPL_v6mUS-6" edge="1">
          <mxGeometry width="50" height="50" relative="1" as="geometry">
            <mxPoint x="80" y="290" as="sourcePoint" />
            <mxPoint x="160" y="290" as="targetPoint" />
            <Array as="points" />
          </mxGeometry>
        </mxCell>
        <mxCell id="nR4w6nnt4aLYPL_v6mUS-17" value="&amp;lt;&amp;lt;extends&amp;gt;&amp;gt;" style="endArrow=open;endSize=12;dashed=1;html=1;rounded=0;exitX=0;exitY=0.5;exitDx=0;exitDy=0;entryX=1;entryY=0.5;entryDx=0;entryDy=0;" parent="1" source="nR4w6nnt4aLYPL_v6mUS-10" target="nR4w6nnt4aLYPL_v6mUS-9" edge="1">
          <mxGeometry x="-0.1111" width="160" relative="1" as="geometry">
            <mxPoint x="500" y="430" as="sourcePoint" />
            <mxPoint x="460" y="400" as="targetPoint" />
            <Array as="points" />
            <mxPoint as="offset" />
          </mxGeometry>
        </mxCell>
        <mxCell id="nR4w6nnt4aLYPL_v6mUS-24" value="Gestione&lt;br&gt;&amp;nbsp;pubblicità" style="ellipse;whiteSpace=wrap;html=1;" parent="1" vertex="1">
          <mxGeometry x="210" y="470" width="120" height="80" as="geometry" />
        </mxCell>
        <mxCell id="nR4w6nnt4aLYPL_v6mUS-25" value="Creazione &lt;br&gt;volantini" style="ellipse;whiteSpace=wrap;html=1;" parent="1" vertex="1">
          <mxGeometry x="40" y="550" width="110" height="80" as="geometry" />
        </mxCell>
        <mxCell id="nR4w6nnt4aLYPL_v6mUS-26" value="" style="endArrow=none;html=1;rounded=0;exitX=0.079;exitY=0.219;exitDx=0;exitDy=0;exitPerimeter=0;" parent="1" source="nR4w6nnt4aLYPL_v6mUS-24" edge="1">
          <mxGeometry width="50" height="50" relative="1" as="geometry">
            <mxPoint x="127" y="522" as="sourcePoint" />
            <mxPoint x="90" y="350" as="targetPoint" />
            <Array as="points" />
          </mxGeometry>
        </mxCell>
        <mxCell id="nR4w6nnt4aLYPL_v6mUS-27" value="" style="endArrow=none;html=1;rounded=0;exitX=0.362;exitY=0.008;exitDx=0;exitDy=0;exitPerimeter=0;" parent="1" source="nR4w6nnt4aLYPL_v6mUS-25" edge="1">
          <mxGeometry width="50" height="50" relative="1" as="geometry">
            <mxPoint y="522" as="sourcePoint" />
            <mxPoint x="50" y="350" as="targetPoint" />
            <Array as="points" />
          </mxGeometry>
        </mxCell>
        <mxCell id="nR4w6nnt4aLYPL_v6mUS-28" value="Locandine pellicole" style="ellipse;whiteSpace=wrap;html=1;" parent="1" vertex="1">
          <mxGeometry x="440" y="470" width="120" height="80" as="geometry" />
        </mxCell>
        <mxCell id="nR4w6nnt4aLYPL_v6mUS-29" value="Galleria immagini della struttura" style="ellipse;whiteSpace=wrap;html=1;" parent="1" vertex="1">
          <mxGeometry x="354" y="590" width="120" height="80" as="geometry" />
        </mxCell>
        <mxCell id="MTPyFqzw0lG_PxfnG86p-2" value="&amp;lt;&amp;lt;include&amp;gt;&amp;gt;" style="html=1;verticalAlign=bottom;labelBackgroundColor=none;endArrow=classic;endFill=1;dashed=1;rounded=0;exitX=0.759;exitY=0.02;exitDx=0;exitDy=0;exitPerimeter=0;" parent="1" source="nR4w6nnt4aLYPL_v6mUS-6" target="nR4w6nnt4aLYPL_v6mUS-7" edge="1">
          <mxGeometry width="160" relative="1" as="geometry">
            <mxPoint x="257" y="238" as="sourcePoint" />
            <mxPoint x="283" y="160" as="targetPoint" />
            <Array as="points" />
          </mxGeometry>
        </mxCell>
        <mxCell id="MTPyFqzw0lG_PxfnG86p-3" value="&amp;lt;&amp;lt;include&amp;gt;&amp;gt;" style="html=1;verticalAlign=bottom;labelBackgroundColor=none;endArrow=classic;endFill=1;dashed=1;rounded=0;exitX=1;exitY=0.5;exitDx=0;exitDy=0;entryX=0;entryY=0.5;entryDx=0;entryDy=0;" parent="1" source="nR4w6nnt4aLYPL_v6mUS-6" target="nR4w6nnt4aLYPL_v6mUS-8" edge="1">
          <mxGeometry width="160" relative="1" as="geometry">
            <mxPoint x="291" y="262" as="sourcePoint" />
            <mxPoint x="349" y="219" as="targetPoint" />
            <Array as="points" />
          </mxGeometry>
        </mxCell>
        <mxCell id="MTPyFqzw0lG_PxfnG86p-4" value="&amp;lt;&amp;lt;include&amp;gt;&amp;gt;" style="html=1;verticalAlign=bottom;labelBackgroundColor=none;endArrow=classic;endFill=1;dashed=1;rounded=0;exitX=1;exitY=1;exitDx=0;exitDy=0;entryX=0;entryY=0;entryDx=0;entryDy=0;" parent="1" source="nR4w6nnt4aLYPL_v6mUS-6" target="nR4w6nnt4aLYPL_v6mUS-9" edge="1">
          <mxGeometry width="160" relative="1" as="geometry">
            <mxPoint x="320" y="300" as="sourcePoint" />
            <mxPoint x="424" y="300" as="targetPoint" />
            <Array as="points" />
          </mxGeometry>
        </mxCell>
        <mxCell id="MTPyFqzw0lG_PxfnG86p-5" value="&amp;lt;&amp;lt;include&amp;gt;&amp;gt;" style="html=1;verticalAlign=bottom;labelBackgroundColor=none;endArrow=classic;endFill=1;dashed=1;rounded=0;exitX=1;exitY=0.5;exitDx=0;exitDy=0;entryX=0;entryY=0.5;entryDx=0;entryDy=0;" parent="1" source="nR4w6nnt4aLYPL_v6mUS-24" target="nR4w6nnt4aLYPL_v6mUS-28" edge="1">
          <mxGeometry width="160" relative="1" as="geometry">
            <mxPoint x="302" y="328" as="sourcePoint" />
            <mxPoint x="358" y="382" as="targetPoint" />
            <Array as="points" />
          </mxGeometry>
        </mxCell>
        <mxCell id="MTPyFqzw0lG_PxfnG86p-6" value="&amp;lt;&amp;lt;include&amp;gt;&amp;gt;" style="html=1;verticalAlign=bottom;labelBackgroundColor=none;endArrow=classic;endFill=1;dashed=1;rounded=0;exitX=1;exitY=1;exitDx=0;exitDy=0;entryX=0;entryY=0;entryDx=0;entryDy=0;" parent="1" source="nR4w6nnt4aLYPL_v6mUS-24" target="nR4w6nnt4aLYPL_v6mUS-29" edge="1">
          <mxGeometry width="160" relative="1" as="geometry">
            <mxPoint x="340" y="520" as="sourcePoint" />
            <mxPoint x="450" y="520" as="targetPoint" />
            <Array as="points" />
          </mxGeometry>
        </mxCell>
        <mxCell id="MTPyFqzw0lG_PxfnG86p-7" value="&amp;lt;&amp;lt;include&amp;gt;&amp;gt;" style="html=1;verticalAlign=bottom;labelBackgroundColor=none;endArrow=classic;endFill=1;dashed=1;rounded=0;exitX=1;exitY=0.5;exitDx=0;exitDy=0;entryX=0;entryY=0.5;entryDx=0;entryDy=0;" parent="1" source="nR4w6nnt4aLYPL_v6mUS-25" target="nR4w6nnt4aLYPL_v6mUS-29" edge="1">
          <mxGeometry width="160" relative="1" as="geometry">
            <mxPoint x="322" y="548" as="sourcePoint" />
            <mxPoint x="382" y="612" as="targetPoint" />
            <Array as="points" />
          </mxGeometry>
        </mxCell>
      </root>
    </mxGraphModel>
  </diagram>
</mxfile>
